<svg width="78" height="78" viewBox="0 0 78 78" fill="none" xmlns="http://www.w3.org/2000/svg">
<path d="M48.2235 54.8847C48.3545 54.8847 48.4842 54.8583 48.6049 54.807C48.7255 54.7558 48.8345 54.6807 48.9255 54.5863L63.2755 39.7059C63.4501 39.5243 63.5476 39.2821 63.5476 39.0302C63.5476 38.7783 63.4501 38.5362 63.2755 38.3545L48.8631 23.4136C48.7757 23.3159 48.6696 23.2369 48.551 23.1811C48.4323 23.1254 48.3037 23.0941 48.1728 23.0892C48.0418 23.0843 47.9112 23.1058 47.7887 23.1525C47.6663 23.1992 47.5545 23.2701 47.4601 23.361C47.3657 23.4519 47.2905 23.5609 47.2392 23.6815C47.1878 23.802 47.1613 23.9317 47.1612 24.0628C47.1611 24.1939 47.1874 24.3236 47.2386 24.4442C47.2898 24.5649 47.3648 24.674 47.4591 24.765L61.2183 39.0292L47.5215 53.233C47.3887 53.3708 47.2994 53.5445 47.2646 53.7327C47.2299 53.9208 47.2513 54.115 47.3261 54.2911C47.401 54.4671 47.5259 54.6173 47.6855 54.7229C47.8451 54.8284 48.0321 54.8847 48.2235 54.8847Z" fill="#F9F9F9"/>
<path d="M15.4245 40.0042H62.5755C62.8341 40.0042 63.082 39.9015 63.2649 39.7187C63.4477 39.5358 63.5505 39.2878 63.5505 39.0292C63.5505 38.7707 63.4477 38.5227 63.2649 38.3398C63.082 38.157 62.8341 38.0542 62.5755 38.0542H15.4245C15.1659 38.0542 14.9179 38.157 14.735 38.3398C14.5522 38.5227 14.4495 38.7707 14.4495 39.0292C14.4495 39.2878 14.5522 39.5358 14.735 39.7187C14.9179 39.9015 15.1659 40.0042 15.4245 40.0042Z" fill="#F9F9F9"/>
</svg>
