<svg width="24" height="24" viewBox="0 0 24 24" fill="none" xmlns="http://www.w3.org/2000/svg">
<path d="M12 3.99997L11.646 3.64597L12 3.29297L12.354 3.64597L12 3.99997ZM12.5 19C12.5 19.1326 12.4473 19.2598 12.3535 19.3535C12.2598 19.4473 12.1326 19.5 12 19.5C11.8674 19.5 11.7402 19.4473 11.6464 19.3535C11.5527 19.2598 11.5 19.1326 11.5 19H12.5ZM5.646 9.64597L11.646 3.64597L12.354 4.35397L6.354 10.354L5.646 9.64597ZM12.354 3.64597L18.354 9.64597L17.646 10.354L11.646 4.35397L12.354 3.64597ZM12.5 3.99997V19H11.5V3.99997H12.5Z" fill="white"/>
</svg>
