<svg width="24" height="24" viewBox="0 0 24 24" fill="none" xmlns="http://www.w3.org/2000/svg">

<!--    <svg width="78" height="78" viewBox="0 0 78 78" fill="none" xmlns="http://www.w3.org/2000/svg">-->
    <g id="react">
        <mask id="mask0_78116_64" style="mask-type:luminance" maskUnits="userSpaceOnUse" x="0" y="0" width="78" height="78">
            <path d="M0 0H78V78H0V0Z" fill="white"/>
        </mask>
        <g mask="url(#mask0_78116_64)" fill="currentColor">
            <path d="M78 37.9893C78 32.8218 71.5293 27.924 61.607 24.8885C63.8982 14.7778 62.881 6.73075 58.396 4.1535C57.309 3.54558 56.0792 3.23926 54.834 3.26625V6.80875C55.5653 6.80875 56.1535 6.955 56.6475 7.22475C58.8088 8.46625 59.748 13.1853 59.0168 19.2595C58.8413 20.7545 58.5553 22.3275 58.2043 23.933C54.881 23.1351 51.5089 22.5564 48.1098 22.2008C46.0834 19.4075 43.874 16.7519 41.496 14.2513C46.6797 9.43475 51.545 6.79575 54.8535 6.79575V3.25C50.479 3.25 44.7557 6.36675 38.9675 11.7715C33.1825 6.4025 27.456 3.315 23.0848 3.315V6.8575C26.377 6.8575 31.2585 9.4835 36.4422 14.2675C34.216 16.6075 31.9898 19.2595 29.874 22.2008C26.4677 22.5513 23.0895 23.1355 19.7633 23.9492C19.3993 22.3589 19.123 20.8228 18.9345 19.3408C18.187 13.2633 19.11 8.54425 21.2582 7.28975C21.7327 7.00375 22.3535 6.87375 23.0848 6.87375V3.33125C21.7523 3.33125 20.54 3.61725 19.4935 4.2185C15.0248 6.79575 14.0238 14.8233 16.328 24.9048C6.43825 27.9598 0 32.838 0 37.9893C0 43.1567 6.47075 48.0545 16.393 51.0868C14.1018 61.2007 15.119 69.2477 19.604 71.8218C20.6375 72.4263 21.8465 72.7122 23.179 72.7122C27.5535 72.7122 33.2768 69.5955 39.065 64.1908C44.85 69.563 50.5732 72.6473 54.9478 72.6473C56.2022 72.6707 57.4408 72.3635 58.539 71.7568C63.0077 69.1828 64.0088 61.1553 61.7045 51.0737C71.5618 48.0382 78 43.1405 78 37.9893ZM57.2975 27.3845C56.68 29.5096 55.9643 31.6048 55.1525 33.6635C53.826 31.0778 52.367 28.5622 50.7812 26.1267C53.0433 26.4582 55.2164 26.8775 57.3008 27.3845M50.0207 44.317C48.8302 46.3951 47.5518 48.4217 46.189 50.3913C41.4188 50.8109 36.6212 50.8164 31.85 50.4075C29.1139 46.498 26.7206 42.3594 24.6968 38.038C26.716 33.7056 29.0992 29.5524 31.8208 25.623C36.5898 25.2024 41.3863 25.1959 46.1565 25.6035C47.4782 27.4993 48.7608 29.5143 50.0045 31.6485C51.2113 33.7307 52.3142 35.8388 53.313 37.973C52.3022 40.1315 51.2039 42.2479 50.0207 44.317ZM55.1525 42.25C56.0105 44.382 56.745 46.5107 57.3463 48.5777C55.2663 49.088 53.0693 49.517 50.7975 49.8485C52.3747 47.3897 53.8282 44.8537 55.1525 42.25ZM39.0325 59.215C37.5505 57.6853 36.0772 55.9888 34.6125 54.1255C36.0425 54.1905 37.505 54.2392 38.9837 54.2392C40.4809 54.2414 41.9543 54.2035 43.4037 54.1255C41.9737 55.9877 40.495 57.6875 39.0325 59.215ZM27.2025 49.8485C25.0111 49.5315 22.8356 49.1129 20.683 48.594C21.2712 46.5432 22.0025 44.4275 22.828 42.315C23.4813 43.5825 24.167 44.8565 24.9145 46.1305C25.662 47.4023 26.4247 48.6417 27.2025 49.8485ZM38.9512 16.7635C40.4333 18.2932 41.9066 19.9897 43.3713 21.853C41.9412 21.788 40.4787 21.7393 39 21.7393C37.5028 21.7371 36.0295 21.775 34.58 21.853C36.01 19.9907 37.4888 18.291 38.9512 16.7635ZM27.1862 26.13C25.6095 28.5835 24.156 31.114 22.8313 33.7122C21.9969 31.6402 21.2648 29.5284 20.6375 27.3845C22.7175 26.8905 24.9145 26.4615 27.1862 26.13ZM12.7985 46.033C7.1695 43.6345 3.5295 40.4852 3.5295 37.9893C3.5295 35.4933 7.1695 32.3277 12.7985 29.9455C14.1635 29.3572 15.6585 28.8308 17.2023 28.34C18.109 31.4535 19.3018 34.697 20.7773 38.0218C19.3826 41.1482 18.2044 44.3668 17.251 47.6548C15.7414 47.1867 14.2555 46.6454 12.7985 46.033ZM21.3525 68.7505C19.1912 67.5155 18.252 62.79 18.9832 56.719C19.1588 55.224 19.4447 53.6478 19.7957 52.0423C22.9093 52.806 26.312 53.3943 29.8902 53.7778C31.9166 56.571 34.126 59.2266 36.504 61.7272C31.3203 66.5438 26.455 69.1828 23.1465 69.1828C22.5228 69.1853 21.9076 69.0381 21.3525 68.7538M59.0655 56.641C59.813 62.7152 58.89 67.4375 56.7417 68.692C56.2673 68.978 55.6465 69.1048 54.9152 69.1048C51.623 69.1048 46.7415 66.482 41.5578 61.6947C43.9268 59.2055 46.1215 56.5559 48.126 53.7647C51.5323 53.4142 54.9105 52.83 58.2368 52.0162C58.6073 53.6196 58.8835 55.1612 59.0655 56.641ZM65.1852 46.0363C63.8202 46.6245 62.3252 47.151 60.7815 47.6418C59.8095 44.3376 58.6151 41.103 57.2065 37.96C58.669 34.6548 59.8423 31.4275 60.7327 28.327C62.3101 28.8188 63.7997 29.3594 65.2015 29.9487C70.8305 32.3472 74.4705 35.4965 74.4705 37.9925C74.4542 40.4885 70.8142 43.654 65.1852 46.0363Z" />
            <path d="M38.9838 45.2562C40.9111 45.2562 42.7595 44.4906 44.1223 43.1278C45.4852 41.7649 46.2508 39.9166 46.2508 37.9892C46.2508 36.0619 45.4852 34.2135 44.1223 32.8507C42.7595 31.4879 40.9111 30.7222 38.9838 30.7222C37.0565 30.7222 35.2081 31.4879 33.8453 32.8507C32.4824 34.2135 31.7168 36.0619 31.7168 37.9892C31.7168 39.9166 32.4824 41.7649 33.8453 43.1278C35.2081 44.4906 37.0565 45.2562 38.9838 45.2562Z" fill="currentColor"/>
        </g>
    </g>

    <g id="typescript">
        <path d="M1.21875 38.9451V77.0311H77.3906V0.859192H1.21875V38.9451ZM62.6011 35.8983C64.4255 36.3216 66.0836 37.2758 67.3664 38.6404C68.0725 39.3757 68.6864 40.1942 69.1945 41.0779C69.1945 41.1754 65.9039 43.3997 63.8991 44.6428C63.8259 44.6915 63.5334 44.3747 63.2105 43.8932C62.8445 43.2617 62.3245 42.7332 61.699 42.3571C61.0734 41.9809 60.3628 41.7694 59.6334 41.7422C57.3239 41.5837 55.837 42.7964 55.8492 44.789C55.8307 45.2851 55.9443 45.7772 56.1783 46.215C56.6841 47.2692 57.6286 47.8968 60.5902 49.1765C66.0441 51.5226 68.378 53.0704 69.8283 55.2703C71.4492 57.7078 71.8088 61.6443 70.7119 64.5572C69.4931 67.7259 66.5072 69.877 62.2842 70.59C60.3555 70.811 58.4067 70.7905 56.483 70.529C53.5471 70.0528 50.8389 68.6549 48.75 66.5376C48.0492 65.7637 46.6842 63.7467 46.7695 63.6004C46.9916 63.4347 47.2258 63.286 47.4703 63.1556L50.2734 61.5468L52.4611 60.2793L52.9181 60.9557C53.6897 62.0589 54.6712 62.999 55.8066 63.7223C58.2441 65.002 61.5712 64.8253 63.2166 63.3445C63.769 62.8019 64.1136 62.0827 64.1904 61.3122C64.2673 60.5417 64.0714 59.7686 63.637 59.1276C63.0277 58.2806 61.8089 57.5676 58.4025 56.0807C54.472 54.3867 52.778 53.3386 51.2302 51.6689C50.2642 50.5668 49.5508 49.267 49.14 47.8603C48.8338 46.253 48.7885 44.6069 49.0059 42.9853C49.8164 39.1889 52.6622 36.5381 56.8181 35.752C58.7428 35.5142 60.6923 35.5676 62.6011 35.9104V35.8983ZM44.722 39.0914V42.2114H34.8319V70.3828H27.818V42.2053H17.9034V39.1584C17.8766 38.1095 17.9051 37.0599 17.9888 36.014C18.0253 35.9653 24.0825 35.9409 31.395 35.9531H44.6855L44.722 39.0914Z" fill="currentColor"/>
    </g>

    <g id="express">
        <rect width="78" height="78" fill="currentColor"/>
        <path d="M24.698 47.4216V30.9197H25.5938V33.5156C25.699 33.4001 25.7967 33.278 25.8863 33.15C26.2523 32.3902 26.8273 31.7504 27.544 31.3058C28.2606 30.8611 29.0892 30.6299 29.9325 30.6394C31.9739 30.5784 33.6314 31.3341 34.6064 33.15C35.2268 34.2781 35.5682 35.5383 35.6021 36.8252C35.636 38.1122 35.3615 39.3886 34.8014 40.5478C33.8934 42.5831 31.6509 43.5947 29.25 43.223C28.5029 43.1593 27.7835 42.9096 27.1576 42.4966C26.5318 42.0836 26.0193 41.5205 25.6669 40.8586V47.4216H24.698ZM25.5938 36.7575C25.673 37.5619 25.7034 38.1347 25.7948 38.6953C26.1483 40.9012 27.4523 42.2114 29.4998 42.4491C30.4612 42.6071 31.4477 42.4268 32.2911 41.939C33.1345 41.4512 33.7826 40.686 34.125 39.7739C34.5185 38.8357 34.7078 37.8245 34.6805 36.8075C34.6532 35.7905 34.4098 34.7909 33.9666 33.8752C33.6011 33.0576 32.9795 32.3812 32.1957 31.9481C31.4119 31.5149 30.5084 31.3486 29.6217 31.4742C28.7892 31.5345 27.9962 31.8527 27.353 32.3846C26.7097 32.9165 26.2482 33.6356 26.0325 34.4419C25.8411 35.2045 25.6946 35.9777 25.5938 36.7575ZM53.8749 39C53.7391 40.1618 53.186 41.2349 52.3185 42.0195C51.4509 42.8041 50.3279 43.2469 49.1583 43.2656C45.4045 43.4545 43.6434 40.9622 43.3631 38.0859C43.1679 36.524 43.4215 34.9387 44.0944 33.5156C44.5625 32.5393 45.3291 31.7373 46.2834 31.2257C47.2376 30.7141 48.3298 30.5194 49.402 30.6698C50.4214 30.7562 51.3877 31.1611 52.1642 31.8272C52.9407 32.4932 53.488 33.3866 53.7286 34.3809C53.9194 35.2865 54.0598 36.202 54.1491 37.1231H44.2833C44.1005 39.7312 45.502 41.8275 47.4886 42.3333C49.9627 42.9427 52.0772 41.8701 52.845 39.518C53.0156 38.9147 53.3264 38.8294 53.8749 39ZM44.2833 36.2883H53.1009C53.0461 33.5095 51.3155 31.4986 48.9694 31.4681C46.3125 31.4255 44.3991 33.3633 44.2833 36.2883ZM55.6908 39.0609H56.5561C56.5881 39.6976 56.795 40.3132 57.154 40.84C57.5131 41.3668 58.0104 41.7844 58.5914 42.0469C59.321 42.3752 60.1151 42.5347 60.9149 42.5136C61.7146 42.4925 62.4993 42.2913 63.2105 41.925C63.5981 41.7503 63.9227 41.4609 64.1407 41.0958C64.3586 40.7308 64.4593 40.3077 64.4292 39.8836C64.4515 39.4746 64.3398 39.0695 64.1111 38.7297C63.8824 38.3898 63.5491 38.1339 63.1617 38.0006C62.2111 37.6472 61.1995 37.4522 60.2306 37.1414C59.2223 36.8548 58.2365 36.4943 57.2813 36.0628C55.7213 35.3011 55.6238 32.3334 57.3909 31.395C58.2958 30.8844 59.3142 30.6085 60.3531 30.5925C61.392 30.5765 62.4183 30.821 63.3384 31.3036C63.8958 31.6116 64.3461 32.0823 64.6292 32.6528C64.9122 33.2233 65.0147 33.8665 64.9228 34.4967H64.1794C64.1794 34.4602 64.1124 34.4297 64.1124 34.3931C64.0209 32.0226 62.0344 31.2914 59.9016 31.4986C59.265 31.5775 58.6466 31.765 58.0734 32.0531C57.7292 32.2106 57.4423 32.471 57.2524 32.7984C57.0624 33.1259 56.9788 33.5042 57.0131 33.8812C57.0142 34.2584 57.1319 34.626 57.3501 34.9337C57.5683 35.2413 57.8763 35.474 58.2319 35.5997C59.1703 35.9409 60.1514 36.1603 61.1142 36.4284C61.8881 36.6417 62.6925 36.7819 63.442 37.0378C63.9711 37.2112 64.4349 37.5412 64.7723 37.9841C65.1096 38.427 65.3045 38.9619 65.3311 39.518C65.4215 40.1273 65.3177 40.7496 65.0344 41.2965C64.7511 41.8434 64.3027 42.2872 63.7528 42.5648C61.7175 43.7166 58.3659 43.4119 56.873 41.9555C56.4946 41.5749 56.1953 41.1232 55.9924 40.6264C55.7895 40.1296 55.687 39.5976 55.6908 39.0609ZM76.2999 34.4967H75.4894C75.4894 34.387 75.4467 34.2895 75.4345 34.1981C75.4214 33.5906 75.1999 33.0061 74.8072 32.5423C74.4145 32.0786 73.8744 31.7639 73.2774 31.6509C72.1508 31.3277 70.9491 31.3855 69.8588 31.8155C69.4278 31.939 69.0484 32.1987 68.7771 32.5556C68.5058 32.9125 68.3573 33.3476 68.3536 33.7959C68.3384 34.2362 68.4757 34.6682 68.7421 35.019C69.0086 35.3699 69.3879 35.618 69.8161 35.7216C71.0349 36.0994 72.2841 36.3309 73.5211 36.6722C73.922 36.7684 74.3167 36.8885 74.7033 37.0317C75.2805 37.2382 75.782 37.6141 76.1423 38.1101C76.5025 38.6062 76.7047 39.1994 76.7225 39.8122C76.7403 40.425 76.5728 41.0289 76.2419 41.545C75.911 42.0611 75.4321 42.4654 74.8678 42.705C74.0079 43.0955 73.0758 43.3021 72.1314 43.3115C71.187 43.321 70.251 43.1331 69.3834 42.7598C68.67 42.4521 68.0679 41.9332 67.6583 41.273C67.2486 40.6128 67.0511 39.8429 67.0922 39.067H67.8844C68.0309 39.7741 68.3476 40.4347 68.807 40.9918C69.2665 41.5489 69.8547 41.9856 70.521 42.2641C71.1872 42.5426 71.9112 42.6545 72.6304 42.5901C73.3496 42.5257 74.0423 42.2869 74.6484 41.8945C75.0177 41.7027 75.3242 41.409 75.5316 41.0482C75.7389 40.6875 75.8385 40.2748 75.8184 39.8592C75.8368 39.45 75.7212 39.0459 75.4892 38.7083C75.2571 38.3707 74.9213 38.1179 74.5327 37.9884C73.582 37.635 72.5705 37.4461 71.6016 37.1353C70.5877 36.8527 69.5958 36.4963 68.6339 36.0689C67.1105 35.3194 66.9886 32.3761 68.7253 31.4377C69.6414 30.9056 70.6797 30.6198 71.739 30.6081C72.7983 30.5963 73.8426 30.859 74.7703 31.3706C75.3009 31.6873 75.7279 32.1514 75.9995 32.7065C76.271 33.2615 76.3754 33.8835 76.2999 34.4967ZM23.2172 42.967C22.8981 43.0878 22.5459 43.0876 22.227 42.9663C21.9081 42.8451 21.6447 42.6112 21.4866 42.3089C20.4933 40.822 19.3964 39.4022 18.3422 37.9519L17.8852 37.3425C16.6298 39.0244 15.3745 40.6392 14.2289 42.315C14.0796 42.6039 13.8305 42.8287 13.5278 42.9475C13.2251 43.0664 12.8895 43.0711 12.5836 42.9609L17.2941 36.6417L12.9127 30.9319C13.2281 30.818 13.5731 30.8164 13.8895 30.9274C14.2059 31.0385 14.4743 31.2553 14.6494 31.5412C15.667 33.0281 16.7944 34.448 17.9156 35.9531C19.043 34.4602 20.1581 33.0342 21.2002 31.5595C21.3502 31.2753 21.5996 31.0562 21.9007 30.9438C22.2018 30.8315 22.5337 30.8337 22.8333 30.9502L21.1331 33.2048C20.3714 34.2103 19.6219 35.2219 18.8297 36.203C18.7659 36.2601 18.7148 36.3301 18.6798 36.4083C18.6449 36.4865 18.6268 36.5713 18.6268 36.6569C18.6268 36.7426 18.6449 36.8273 18.6798 36.9056C18.7148 36.9838 18.7659 37.0538 18.8297 37.1109C20.2861 39.0427 21.7303 40.9805 23.2172 42.967ZM43.2169 30.8709V31.7241C42.6006 31.6836 41.9826 31.7729 41.4029 31.9861C40.8232 32.1992 40.2946 32.5316 39.8513 32.9617C39.408 33.3918 39.0599 33.9101 38.8292 34.483C38.5986 35.056 38.4907 35.671 38.5125 36.2883V42.9914H37.6411V30.9197H38.4942V33.3937C39.5484 31.59 41.1755 30.9197 43.2169 30.8709ZM1.29797 36.5625C1.42594 35.9531 1.50516 35.2889 1.68188 34.6673C2.7361 30.9197 7.03219 29.3597 9.98766 31.6814C11.7183 33.0403 12.1509 34.9659 12.0656 37.1353H2.31563C2.15719 41.0109 4.95422 43.3509 8.53125 42.1566C9.1115 41.949 9.63093 41.6002 10.0426 41.1417C10.4544 40.6832 10.7454 40.1293 10.8895 39.5302C11.0784 38.9208 11.3831 38.8172 11.962 38.9939C11.8667 39.7358 11.6044 40.4463 11.1949 41.0722C10.7853 41.6981 10.2393 42.223 9.59766 42.6075C8.53759 43.1872 7.32137 43.4168 6.12291 43.2636C4.92445 43.1104 3.80513 42.5821 2.925 41.7544C2.0543 40.7754 1.52783 39.5384 1.42594 38.2322C1.42594 38.025 1.34672 37.8178 1.30407 37.6228C1.3 37.2612 1.29797 36.9078 1.29797 36.5625ZM2.32782 36.3005H11.1455C11.0906 33.4912 9.31735 31.4986 6.95297 31.4803C4.32047 31.4437 2.4375 33.3937 2.32172 36.2883L2.32782 36.3005Z" fill="black"/>
    </g>

    <g id="figma">
        <path d="M12.6917 0H25.3307V25.2784H12.6918C-3.97611 24.6268 -4.14445 0.684328 12.6917 0ZM12.6917 51.638H25.3307V26.3596H12.6918C-4.1443 27.0439 -3.97611 50.9864 12.6917 51.638ZM39.0512 0H26.4119V25.2784H39.0512C55.9434 24.3744 55.7329 0.515988 39.0512 0ZM25.3307 65.3585V52.7192H12.6918C2.37784 52.7192 -4.1443 64.8116 3.02881 73.497C9.86782 82.1058 25.3309 77.8138 25.3309 65.3585M51.7162 38.9988C51.7162 29.2853 41.1286 23.1817 32.7045 28.0384C24.2803 32.8951 24.2802 45.1026 32.7045 49.9593C41.1288 54.816 51.7162 48.7122 51.7162 38.9988Z" fill="currentColor"/>
    </g>

    <g id="redux">
        <path d="M44.2685 72.7769C45.6529 71.7882 47.6308 70.2058 48.7185 69.2169C67.6786 76.7494 73.8643 62.0272 73.3705 56.4083C72.8235 50.1866 65.0983 32.431 38.8299 32.4305C37.5947 35.3255 33.9827 36.7778 30.9953 35.0473C27.329 32.9236 27.329 27.586 30.9953 25.4625C33.8433 23.8126 37.2583 25.056 38.6411 27.6838C54.5892 27.6027 72.4684 34.3762 77.468 53.2242C81.074 66.8171 65.9457 82.6631 44.2685 72.7769ZM54.0804 53.5522C56.719 53.2413 59.0061 51.039 59.0061 48.0549C59.0061 43.8077 54.3741 41.1388 50.6884 43.2624C47.4553 45.1253 47.0592 49.4613 49.4986 51.9314C40.7476 68.2471 21.2032 74.6265 10.8896 68.4341C5.17819 65.0048 -0.711419 52.7286 13.0196 41.4293C12.624 40.1438 12.0306 37.9682 11.734 36.386C-12.9528 54.9896 4.81775 84.5912 32.6526 73.0635C40.1781 69.9468 48.3376 64.4998 54.0802 53.5522M23.9765 59.8684C27.6673 61.992 32.3059 59.323 32.3059 55.0759C32.3059 51.5315 29.0754 49.0888 25.8613 49.6109C5.4451 11.4753 48.4296 -11.1713 53.9596 24.9149L58.904 26.3983C55.3087 -2.62958 33.6048 0.0265293 26.6518 5.90563C21.4409 10.3119 7.51057 25.8162 21.9028 52.3746C20.516 54.8715 21.207 58.2749 23.9765 59.8684Z" fill="currentColor"/>
    </g>

    <g id="styledComponents">
        <path d="M19.5597 37.4528C19.255 41.2891 22.6253 44.1148 24.9254 44.1148C27.2287 44.0074 36.1992 36.4479 36.1992 36.4479C40.4182 31.1121 40.4364 28.7395 40.4364 26.8747C40.0845 18.6415 25.0848 31.1814 19.5597 37.4528ZM56.6653 34.2661C58.7014 29.9569 55.9621 25.1707 50.0036 29.3746C45.2688 32.384 39.1389 38.575 36.2053 40.9984C34.8445 43.7469 38.2939 51.2894 43.76 47.307C50.2209 42.613 54.939 38.1991 56.6653 34.2661ZM62.2106 8.19823L63.5228 0H78V14.9653L72.6943 15.0287L66.3058 36.6667C66.7034 44.3034 62.8308 44.4277 62.3362 47.9318C61.0929 56.7388 51.244 63.9449 47.4785 63.9449C44.9672 63.8721 43.1313 60.9937 42.5146 58.4855C49.5955 50.6535 59.1176 44.4987 59.1176 44.4987C59.7122 40.3798 58.4054 39.0684 62.8002 35.5586L66.9939 13.5086C63.4123 11.1435 61.7411 11.1802 62.2106 8.19823ZM33.9529 44.715C37.6246 52.1134 42.93 52.3063 51.1555 42.8871C51.351 43.7579 51.565 44.6702 51.1723 46.8609C34.4394 61.827 18.6795 76.3928 13.8823 78H0V74.2767C2.25773 71.1458 20.787 55.8628 33.9529 44.715ZM58.6825 59.0399C57.9292 65.4438 52.0906 71.0476 44.2888 78H19.5628L40.4077 60.4416C44.006 68.6309 50.3974 67.4446 58.6827 59.0399M29.442 44.5042L0 69.5989V53.3179L17.3261 39.2133C18.2529 44.4632 23.9309 49.0861 29.442 44.5045" fill="currentColor"/>
    </g>

    <g id="css">
        <path d="M62.9395 69.6247L69.1567 0H0L0.08125 0.9035L6.2075 69.6345L6.2595 70.2065L34.3167 78H34.7588L62.881 70.2L62.933 69.628L62.9395 69.6247ZM34.6385 15.2067H54.7332L54.1288 22.2268L34.3037 31.0407L34.6353 32.6267H53.2383L51.0965 57.1675L34.567 61.75L18.044 57.174L17.004 45.422H23.8062L24.3522 51.3792L24.4042 51.9578L34.4305 54.6227H34.8628L44.7785 51.8667L44.8273 51.2915L45.7633 40.287L45.838 39.39H16.4353L15.8177 32.3277L36.322 23.5495L35.997 21.957H14.937L14.3357 15.197H34.6157L34.6385 15.2067Z" fill="currentColor"/>
    </g>


    <g id="html">
        <path d="M4.61169 0L10.8712 70.2L38.9609 78L67.1238 70.1902L73.3931 0H4.61169ZM59.7674 22.9613H26.8222L27.6071 31.7801H58.9874L56.6231 58.2124L38.9609 63.1069L21.3232 58.2124L20.1191 44.6891H28.7624L29.3767 51.5629L38.9658 54.1466L38.9853 54.1418L48.5793 51.5531L49.5738 40.3894H19.7339L17.4134 14.352H60.5426L59.7674 22.9613Z" fill="currentColor"/>
    </g>

    <g id="sass">
        <path d="M77.9665 49.9794C77.7425 48.1635 76.8224 46.5883 75.2243 45.2918C75.2044 45.2677 75.1825 45.2452 75.1588 45.2248L75.078 45.1669L75.0521 45.1486L74.2036 44.5392L74.1746 44.5179L74.0665 44.4417C74.0268 44.4186 73.9843 44.4007 73.94 44.3884C71.2557 42.7903 66.8118 41.6706 60.0127 44.07C58.3903 41.34 58.206 39.1524 59.2922 35.8008C59.4856 35.2173 59.3059 34.8319 58.727 34.5821C57.5631 34.0869 55.9695 34.3398 54.8392 34.6384C54.312 34.7755 53.9952 35.0741 53.8946 35.5266C53.1786 38.8782 51.0976 41.9403 49.0851 44.8957L48.9663 45.0694C47.7262 42.4399 47.9837 40.4031 48.8475 37.8514C49.0196 37.3425 48.884 37.0043 48.4072 36.7514C47.0757 36.0644 45.0785 36.5366 44.2833 36.7712C43.2747 37.0653 42.1931 39.7907 40.985 43.0539C40.6803 43.875 40.4183 44.5773 40.2614 44.9049C39.8881 45.6666 39.5317 46.535 39.1538 47.4566C38.3007 49.5422 37.3394 51.8898 35.9653 53.3645C35.4656 52.26 36.2517 50.5187 37.0149 48.8292C37.9183 46.832 38.7715 44.9445 37.7888 43.7394C37.6334 43.5489 37.4407 43.3922 37.2224 43.2791C37.0042 43.1659 36.7651 43.0986 36.5198 43.0813C36.1998 43.057 35.8787 43.1092 35.5829 43.2337C35.685 42.3729 35.6895 41.6935 35.4382 40.8723C35.0786 39.7008 34.1448 39.0442 32.859 39.0792C29.9309 39.1646 27.4538 41.3461 25.8893 43.1621C24.8472 44.3808 22.5377 45.3101 20.51 46.1251C19.7087 46.4649 18.947 46.7696 18.3117 47.0742C17.2986 46.2181 16.0113 45.3543 14.6554 44.4417C10.8468 41.8854 6.53095 38.9863 6.38165 35.0558C6.16837 29.25 12.7801 25.1322 18.5509 22.1935C22.9247 19.9692 26.7272 18.4946 30.1762 17.6887C35.0208 16.5567 39.1127 16.7853 42.3363 18.3651C44.1004 19.2289 44.9261 21.1073 44.4021 23.039C43.031 28.0587 37.3501 31.4986 32.4918 33.0464C29.5653 33.9788 27.0745 34.3688 24.8747 34.2408C22.1172 34.0808 19.8656 32.6976 18.9028 32.108C18.7486 32.0025 18.5855 31.9108 18.4153 31.8338L18.3711 31.8231C18.2839 31.8014 18.1924 31.8042 18.1067 31.831C18.021 31.8579 17.9443 31.9079 17.8851 31.9755C17.6871 32.2116 17.7572 32.5848 17.8288 32.7737C18.7657 35.2219 20.7004 36.7682 23.5782 37.37C24.52 37.5586 25.4787 37.65 26.4392 37.6426C33.1743 37.6426 41.7681 33.7594 44.9246 30.5617C47.0772 28.3832 48.6449 26.1437 49.2938 22.2818C49.9718 18.2371 47.2296 15.4264 44.4356 14.1314C37.6456 10.9977 29.934 12.2363 24.6599 13.8267C18.4899 15.6869 12.1067 19.0689 7.14946 23.1091C1.03743 28.0861 -1.17155 32.7067 0.580401 36.8581C2.37958 41.113 6.76708 43.7745 11.0099 46.3491C12.3809 47.1794 13.685 47.97 14.8596 48.7866C14.5061 48.9587 14.1451 49.1339 13.7779 49.3091C10.2161 51.0352 6.17599 52.9776 3.93501 56.1875C2.30798 58.5259 2.00329 60.8537 3.03009 63.1069C3.57853 64.3058 4.55353 65.1194 5.90786 65.5246C6.61238 65.7242 7.34199 65.8212 8.07419 65.8125C10.7113 65.8125 13.6134 64.7461 15.1932 63.7605C17.9842 62.0085 19.7925 59.6563 20.5694 56.7694C21.2611 54.2009 21.095 51.6491 20.0895 49.3716L23.5097 47.6471C21.8598 53.1314 23.1242 56.4068 24.5136 58.2136C25.0255 58.8794 25.9487 59.28 26.98 59.2983C28.0114 59.3166 28.9605 58.9281 29.4968 58.2669C30.5114 57.0101 31.2609 55.54 31.951 54.0699C31.9145 55.0296 31.9602 56.0016 32.2877 56.8258C32.5817 57.5677 33.0662 58.0598 33.6908 58.2487C34.355 58.4513 35.1335 58.2807 35.883 57.7688C39.2605 55.4577 41.57 49.9109 43.4256 45.4518C43.6891 44.818 43.942 44.2087 44.1873 43.6389C44.6463 45.2818 45.285 46.8691 46.0916 48.3722C46.2713 48.6982 46.2561 48.8414 46.0124 49.1096C45.6452 49.5117 45.1333 49.9977 44.591 50.5126C42.9487 52.0711 40.9043 54.0165 40.6301 55.7274C40.5234 56.4129 40.9957 57.0375 41.7285 57.1792C43.9329 57.618 46.5882 56.9766 48.8338 55.4653C50.8752 54.0942 51.643 52.1823 51.1189 49.7997C50.6116 47.5054 51.7694 44.6566 54.5604 41.3263C55.0174 43.2352 55.6268 44.7784 56.4677 46.1297L56.4449 46.148C54.4126 47.9228 51.6277 50.3527 52.0604 53.3005C52.0967 53.5809 52.191 53.8506 52.3374 54.0924C52.4838 54.3343 52.6789 54.543 52.9105 54.7051C53.1579 54.8722 53.4372 54.9863 53.7308 55.0403C54.0244 55.0943 54.3261 55.0871 54.6167 55.019C57.2782 54.4599 59.2815 53.334 60.7379 51.5806C62.1943 49.8271 61.6626 47.8832 61.1721 46.375C64.9807 45.3421 68.3718 45.368 71.5467 46.4512C73.3291 47.0605 74.6073 48.0614 75.3446 49.4432C76.2724 51.1814 75.7712 52.7856 73.9293 53.9602C73.3642 54.3212 73.0915 54.5421 73.0747 54.8209C73.071 54.8856 73.0829 54.9503 73.1094 55.0094C73.1359 55.0685 73.1762 55.1204 73.227 55.1606C73.4403 55.3358 74.0984 55.6405 75.5868 54.7036C76.9579 53.8429 77.7623 52.6714 77.968 51.1997C78.0094 50.794 78.0088 50.3851 77.9665 49.9794ZM17.0701 53.7972L17.0549 53.9922C16.8172 56.2225 15.6838 58.1664 13.6804 59.7812C12.4221 60.7958 11.0556 61.4189 9.83376 61.5378C8.98064 61.62 8.3606 61.5042 7.99192 61.1919C7.71618 60.9589 7.56841 60.61 7.53489 60.1255C7.28505 56.2438 13.3727 52.3865 16.7989 51.1175C17.0434 51.9883 17.1352 52.895 17.0701 53.7972ZM32.6625 42.8498C32.0988 46.0627 30.455 52.1275 27.8713 54.4812C27.7479 54.5939 27.6443 54.6335 27.597 54.6229C27.5498 54.6122 27.5133 54.5558 27.4752 54.4705C26.6129 52.4718 26.9313 49.0958 28.2369 46.4435C29.2408 44.3991 30.6744 43.0448 32.277 42.6349C32.3436 42.6166 32.4122 42.6069 32.4812 42.606C32.5351 42.6022 32.5888 42.6167 32.6335 42.6471C32.6524 42.677 32.6647 42.7104 32.6697 42.7453C32.6747 42.7803 32.6722 42.8159 32.6625 42.8498ZM45.3817 54.5619C44.8957 55.0692 44.2299 55.0007 44.3868 54.8148L46.8609 52.1884C46.6613 53.0918 46.0718 53.8398 45.3817 54.5619ZM55.6451 52.2905C55.4097 52.4063 55.1552 52.4781 54.894 52.5023C54.8239 51.1205 56.163 49.5651 57.4838 48.5276C57.8388 49.9688 57.1121 51.4922 55.6451 52.2905Z" fill="currentColor"/>
    </g>

    <g id="js">
        <path d="M2.4375 2.4375V75.5625H75.5625V2.4375H2.4375ZM42.2321 59.4701C42.2321 66.5876 38.0591 69.8246 31.9703 69.8246C26.4761 69.8246 23.2854 66.9776 21.6645 63.5456L27.261 60.1575C28.3408 62.049 29.3231 63.6675 31.6778 63.6675C33.9349 63.6675 35.3584 62.8071 35.3584 59.3531V36.0019H42.2321V59.4701ZM58.4805 69.8246C52.0991 69.8246 47.9749 66.7826 45.9639 62.8046L51.558 59.5701C53.0303 61.9539 54.9461 63.7382 58.3342 63.7382C61.1788 63.7382 62.9728 62.3147 62.9728 60.3354C62.9728 57.9808 61.1057 57.1423 57.9662 55.7895L56.2599 55.0339C51.3021 52.9254 48.0139 50.2734 48.0139 44.6745C48.0139 39.5241 51.9236 35.5948 58.0759 35.5948C62.4439 35.5948 65.5834 37.1183 67.8454 41.0889L62.5072 44.5136C61.3372 42.4174 60.0551 41.5643 58.0905 41.5643C56.082 41.5643 54.795 42.8366 54.795 44.5136C54.795 46.5904 56.0625 47.4094 59.0119 48.6818L60.7254 49.4374C66.5681 51.9236 69.8587 54.483 69.8587 60.2355C69.8758 66.4365 65.0179 69.8149 58.4878 69.8149L58.4805 69.8246Z" fill="currentColor"/>
    </g>

    <g id="mongodb">
        <path d="M55.8773 31.0538C51.7693 12.9188 42.0583 6.95825 41.015 4.68C40.105 3.3995 39.2925 1.5795 38.6263 0C38.5093 1.60875 38.4475 2.22625 36.9265 3.848C34.5768 5.6875 22.503 15.8145 21.5215 36.413C20.605 55.627 35.399 67.0767 37.4075 68.536L37.635 68.6985C38.0529 71.7917 38.4104 74.8928 38.7075 78H40.2708C40.6443 74.6469 41.1976 71.3163 41.9283 68.0225C43.2835 67.0605 43.8913 66.5177 44.6908 65.7702C48.4772 62.268 51.4864 58.0099 53.5236 53.2714C55.5609 48.533 56.5808 43.4197 56.5175 38.2622C56.55 35.6167 56.1828 32.8608 55.8773 31.0538ZM38.5353 57.6875C38.5353 57.6875 38.5353 30.7418 39.429 30.745C40.1213 30.745 41.0215 65.5038 41.0215 65.5038C39.7833 65.3575 38.5353 59.7837 38.5353 57.6875Z" fill="currentColor"/>
    </g>


    <g id="gitL">
        <path d="M70.9735 37.9502L39.9392 6.81523C39.52 6.39273 38.4735 6.39273 37.843 6.81523L29.25 15.4115L37.219 23.3805C37.8462 23.0652 38.5807 22.958 39.3153 22.958C42.25 22.958 44.4502 25.3695 44.4502 28.0962C44.4502 28.8307 44.3463 29.5652 44.031 30.1925L50.427 36.5885C51.0575 36.2732 51.792 36.1692 52.5232 36.1692C55.4612 36.1692 57.6582 38.5807 57.6582 41.3042C57.6582 44.2422 55.25 46.4425 52.5232 46.4425C49.5885 46.4425 47.3883 44.031 47.3883 41.3075C47.3883 40.573 47.4922 39.8385 47.8075 39.208L41.4115 32.8152H41.3075V44.8727C43.1925 45.7112 44.5575 47.4922 44.5575 49.6925C44.5575 52.6305 42.146 54.8307 39.4193 54.8307C36.4845 54.8307 34.2842 52.4192 34.2842 49.6957C34.2842 47.4922 35.646 45.604 37.5342 44.8695V33.1305C35.646 32.2887 34.2842 30.5077 34.2842 28.3075C34.2842 27.573 34.3883 26.8385 34.7003 26.2112L26.7313 18.2422L6.916 37.9502C6.49675 38.3727 6.49675 39.4192 6.916 40.0497L38.051 71.1847C38.4735 71.6072 39.52 71.6072 40.1505 71.1847L71.1815 40.0497C71.3559 39.7178 71.4292 39.342 71.3922 38.9688C71.3552 38.5956 71.2097 38.2415 70.9735 37.9502Z" fill="currentColor"/>
    </g>

<!--    <svg width="78" height="78" viewBox="0 0 78 78" fill="none" xmlns="http://www.w3.org/2000/svg">-->


    <g id="gitS">
        <g clip-path="url(#clip0_80307_14)">
            <mask id="mask0_80307_14" style="mask-type:luminance" maskUnits="userSpaceOnUse" x="0" y="0" width="24" height="24">
                <path d="M0 0H24V24H0V0Z" fill="white"/>
            </mask>
            <g mask="url(#mask0_80307_14)">
                <path fill-rule="evenodd" clip-rule="evenodd" d="M12 0C5.37 0 0 5.37 0 12C0 17.31 3.435 21.795 8.205 23.385C8.805 23.49 9.03 23.13 9.03 22.815C9.03 22.53 9.015 21.585 9.015 20.58C6 21.135 5.22 19.845 4.98 19.17C4.845 18.825 4.26 17.76 3.75 17.475C3.33 17.25 2.73 16.695 3.735 16.68C4.68 16.665 5.355 17.55 5.58 17.91C6.66 19.725 8.385 19.215 9.075 18.9C9.18 18.12 9.495 17.595 9.84 17.295C7.17 16.995 4.38 15.96 4.38 11.37C4.38 10.065 4.845 8.985 5.61 8.145C5.49 7.845 5.07 6.615 5.73 4.965C5.73 4.965 6.735 4.65 9.03 6.195C9.99 5.925 11.01 5.79 12.03 5.79C13.05 5.79 14.07 5.925 15.03 6.195C17.325 4.635 18.33 4.965 18.33 4.965C18.99 6.615 18.57 7.845 18.45 8.145C19.215 8.985 19.68 10.05 19.68 11.37C19.68 15.975 16.875 16.995 14.205 17.295C14.64 17.67 15.015 18.39 15.015 19.515C15.015 21.12 15 22.41 15 22.815C15 23.13 15.225 23.505 15.825 23.385C18.2072 22.5807 20.2772 21.0497 21.7437 19.0074C23.2101 16.965 23.9993 14.5143 24 12C24 5.37 18.63 0 12 0Z" fill="currentColor"/>
            </g>
        </g>
        <defs>
            <clipPath id="clip0_80307_14">
                <rect width="24" height="24" fill="white"/>
            </clipPath>
        </defs>
    </g>

    <g id="instagram">
        <mask id="mask0_78117_105" style="mask-type:luminance" maskUnits="userSpaceOnUse" x="2" y="2" width="20" height="20">
            <path d="M17 3H7C5.93913 3 4.92172 3.42143 4.17157 4.17157C3.42143 4.92172 3 5.93913 3 7V17C3 18.0609 3.42143 19.0783 4.17157 19.8284C4.92172 20.5786 5.93913 21 7 21H17C18.0609 21 19.0783 20.5786 19.8284 19.8284C20.5786 19.0783 21 18.0609 21 17V7C21 5.93913 20.5786 4.92172 19.8284 4.17157C19.0783 3.42143 18.0609 3 17 3Z" fill="white" stroke="white" stroke-width="1.33333" stroke-linejoin="round"/>
            <path d="M12 16C13.0609 16 14.0783 15.5786 14.8284 14.8284C15.5786 14.0783 16 13.0609 16 12C16 10.9391 15.5786 9.92172 14.8284 9.17157C14.0783 8.42143 13.0609 8 12 8C10.9391 8 9.92172 8.42143 9.17157 9.17157C8.42143 9.92172 8 10.9391 8 12C8 13.0609 8.42143 14.0783 9.17157 14.8284C9.92172 15.5786 10.9391 16 12 16Z" fill="black" stroke="black" stroke-width="1.33333" stroke-linejoin="round"/>
            <path d="M17.5 7.5C17.7652 7.5 18.0196 7.39464 18.2071 7.20711C18.3946 7.01957 18.5 6.76522 18.5 6.5C18.5 6.23478 18.3946 5.98043 18.2071 5.79289C18.0196 5.60536 17.7652 5.5 17.5 5.5C17.2348 5.5 16.9804 5.60536 16.7929 5.79289C16.6054 5.98043 16.5 6.23478 16.5 6.5C16.5 6.76522 16.6054 7.01957 16.7929 7.20711C16.9804 7.39464 17.2348 7.5 17.5 7.5Z" fill="black"/>
        </mask>
        <g mask="url(#mask0_78117_105)">
            <path d="M0 0H24V24H0V0Z" fill="currentColor"/>
        </g>
    </g>

    <g id="mail">
        <path d="M22 4H2V20H22V4ZM20 8L12 13L4 8V6L12 11L20 6V8Z" fill="currentColor"/>
    </g>


    <!--    <svg width="35" height="34" viewBox="0 0 35 34" fill="none" xmlns="http://www.w3.org/2000/svg">-->
    <g id="square">
        <path d="M17.8951 0.707048L34.6453 17.8951L17.4573 34.6453L0.707002 17.4573L17.8951 0.707048Z" fill="white" stroke="black"/>
    </g>

<!--    <svg width="50" height="50" viewBox="0 0 50 50" fill="none" xmlns="http://www.w3.org/2000/svg">-->
    <g id="logo">
        <path d="M1.66675 6.66675V41.6667H31.6667V34.6667H11.6667V27.6667H31.6667V20.6667H11.6667V13.6667H31.6667V6.66675H1.66675Z" fill="#FF4A8D"/>
        <path d="M40 6.66675C42.2102 6.66675 44.3298 7.40425 45.8926 8.717C47.4554 10.0298 48.3334 11.8102 48.3334 13.6667V34.6667C48.3334 36.5233 47.4554 38.3037 45.8926 39.6165C44.3298 40.9292 42.2102 41.6667 40 41.6667H31.6667C29.4566 41.6667 27.337 40.9292 25.7742 39.6165C24.2113 38.3037 23.3334 36.5233 23.3334 34.6667V20.6667H31.6667V34.6667H40V13.6667H23.3334V6.66675H40Z" fill="white"/>
    </g>

<!--    <svg width="78" height="78" viewBox="0 0 78 78" fill="none" xmlns="http://www.w3.org/2000/svg">-->

    <g id="arrow">
        <path d="M48.2235 54.8847C48.3545 54.8847 48.4842 54.8583 48.6049 54.807C48.7255 54.7558 48.8345 54.6807 48.9255 54.5863L63.2755 39.7059C63.4501 39.5243 63.5476 39.2821 63.5476 39.0302C63.5476 38.7783 63.4501 38.5362 63.2755 38.3545L48.8631 23.4136C48.7757 23.3159 48.6696 23.2369 48.551 23.1811C48.4323 23.1254 48.3037 23.0941 48.1728 23.0892C48.0418 23.0843 47.9112 23.1058 47.7887 23.1525C47.6663 23.1992 47.5545 23.2701 47.4601 23.361C47.3657 23.4519 47.2905 23.5609 47.2392 23.6815C47.1878 23.802 47.1613 23.9317 47.1612 24.0628C47.1611 24.1939 47.1874 24.3236 47.2386 24.4442C47.2898 24.5649 47.3648 24.674 47.4591 24.765L61.2183 39.0292L47.5215 53.233C47.3887 53.3708 47.2994 53.5445 47.2646 53.7327C47.2299 53.9208 47.2513 54.115 47.3261 54.2911C47.401 54.4671 47.5259 54.6173 47.6855 54.7229C47.8451 54.8284 48.0321 54.8847 48.2235 54.8847Z" fill="currentColor"/>
        <path d="M15.4245 40.0042H62.5755C62.8341 40.0042 63.082 39.9015 63.2649 39.7187C63.4477 39.5358 63.5505 39.2878 63.5505 39.0292C63.5505 38.7707 63.4477 38.5227 63.2649 38.3398C63.082 38.157 62.8341 38.0542 62.5755 38.0542H15.4245C15.1659 38.0542 14.9179 38.157 14.735 38.3398C14.5522 38.5227 14.4495 38.7707 14.4495 39.0292C14.4495 39.2878 14.5522 39.5358 14.735 39.7187C14.9179 39.9015 15.1659 40.0042 15.4245 40.0042Z" fill="currentColor"/>
    </g>

<!--    <svg width="62" height="62" viewBox="0 0 62 62" fill="none" xmlns="http://www.w3.org/2000/svg">-->
    <g id="arrowGoTop">
        <path d="M12 3.99997L11.646 3.64597L12 3.29297L12.354 3.64597L12 3.99997ZM12.5 19C12.5 19.1326 12.4473 19.2598 12.3535 19.3535C12.2598 19.4473 12.1326 19.5 12 19.5C11.8674 19.5 11.7402 19.4473 11.6464 19.3535C11.5527 19.2598 11.5 19.1326 11.5 19H12.5ZM5.646 9.64597L11.646 3.64597L12.354 4.35397L6.354 10.354L5.646 9.64597ZM12.354 3.64597L18.354 9.64597L17.646 10.354L11.646 4.35397L12.354 3.64597ZM12.5 3.99997V19H11.5V3.99997H12.5Z" fill="white"/>
    </g>
</svg>
