<svg width="60" height="60" viewBox="0 0 60 60" fill="none" xmlns="http://www.w3.org/2000/svg">
<rect width="60" height="60" fill="#252525"/>
<path d="M10 13V48H35V41H18.3333V34H35V27H18.3333V20H35V13H10Z" fill="#FF4A8D"/>
<path d="M43.3333 13C45.1014 13 46.7971 13.7375 48.0474 15.0503C49.2976 16.363 50 18.1435 50 20V41C50 42.8565 49.2976 44.637 48.0474 45.9497C46.7971 47.2625 45.1014 48 43.3333 48H36.6667C34.8986 48 33.2029 47.2625 31.9526 45.9497C30.7024 44.637 30 42.8565 30 41V27H36.6667V41H43.3333V20H30V13H43.3333Z" fill="white"/>
</svg>
